HIERARCHY
ROOT Hips
{
	OFFSET 0.00000 0.00000 0.00000
	CHANNELS 6 Xposition Yposition Zposition Zrotation Yrotation Xrotation 
	JOINT LHipJoint
	{
		OFFSET 0 0 0
		CHANNELS 3 Zrotation Yrotation Xrotation
		JOINT LeftUpLeg
		{
			OFFSET 1.58895 -1.83665 0.71753
			CHANNELS 3 Zrotation Yrotation Xrotation
			JOINT LeftLeg
			{
				OFFSET 2.50528 -6.88321 0.00000
				CHANNELS 3 Zrotation Yrotation Xrotation
				JOINT LeftFoot
				{
					OFFSET 2.63244 -7.23257 0.00000
					CHANNELS 3 Zrotation Yrotation Xrotation
					JOINT LeftToeBase
					{
						OFFSET 0.23691 -0.65090 1.72750
						CHANNELS 3 Zrotation Yrotation Xrotation
						End Site
						{
							OFFSET 0.00000 -0.00000 0.92561
						}
					}
				}
			}
		}
	}
	JOINT RHipJoint
	{
		OFFSET 0 0 0
		CHANNELS 3 Zrotation Yrotation Xrotation
		JOINT RightUpLeg
		{
			OFFSET -1.51435 -1.83665 0.71753
			CHANNELS 3 Zrotation Yrotation Xrotation
			JOINT RightLeg
			{
				OFFSET -2.54551 -6.99375 0.00000
				CHANNELS 3 Zrotation Yrotation Xrotation
				JOINT RightFoot
				{
					OFFSET -2.66027 -7.30903 0.00000
					CHANNELS 3 Zrotation Yrotation Xrotation
					JOINT RightToeBase
					{
						OFFSET -0.22981 -0.63138 2.03959
						CHANNELS 3 Zrotation Yrotation Xrotation
						End Site
						{
							OFFSET -0.00000 -0.00000 1.07060
						}
					}
				}
			}
		}
	}
	JOINT LowerBack
	{
		OFFSET 0 0 0
		CHANNELS 3 Zrotation Yrotation Xrotation
		JOINT Spine
		{
			OFFSET -0.02651 1.86275 -0.11152
			CHANNELS 3 Zrotation Yrotation Xrotation
			JOINT Spine1
			{
				OFFSET 0.01019 1.86224 0.04087
				CHANNELS 3 Zrotation Yrotation Xrotation
				JOINT Neck
				{
					OFFSET 0 0 0
					CHANNELS 3 Zrotation Yrotation Xrotation
					JOINT Neck1
					{
						OFFSET -0.01926 1.80512 0.08867
						CHANNELS 3 Zrotation Yrotation Xrotation
						JOINT Head
						{
							OFFSET 0.05516 1.76451 -0.38475
							CHANNELS 3 Zrotation Yrotation Xrotation
							End Site
							{
								OFFSET 0.01592 1.82587 -0.14001
							}
						}
					}
				}
				JOINT LeftShoulder
				{
					OFFSET 0 0 0
					CHANNELS 3 Zrotation Yrotation Xrotation
					JOINT LeftArm
					{
						OFFSET 3.47116 1.51376 0.14491
						CHANNELS 3 Zrotation Yrotation Xrotation
						JOINT LeftForeArm
						{
							OFFSET 4.78095 -0.00000 0.00000
							CHANNELS 3 Zrotation Yrotation Xrotation
							JOINT LeftHand
							{
								OFFSET 3.58615 -0.00000 -0.00000
								CHANNELS 3 Zrotation Yrotation Xrotation
								JOINT LeftFingerBase
								{
									OFFSET 0 0 0
									CHANNELS 3 Zrotation Yrotation Xrotation
									JOINT LeftHandIndex1
									{
										OFFSET 0.65981 -0.00000 0.00000
										CHANNELS 3 Zrotation Yrotation Xrotation
										End Site
										{
											OFFSET 0.53196 -0.00000 0.00000
										}
									}
								}
								JOINT LThumb
								{
									OFFSET 0 0 0
									CHANNELS 3 Zrotation Yrotation Xrotation
									End Site
									{
										OFFSET 0.54008 -0.00000 0.54008
									}
								}
							}
						}
					}
				}
				JOINT RightShoulder
				{
					OFFSET 0 0 0
					CHANNELS 3 Zrotation Yrotation Xrotation
					JOINT RightArm
					{
						OFFSET -3.31725 1.61216 0.35156
						CHANNELS 3 Zrotation Yrotation Xrotation
						JOINT RightForeArm
						{
							OFFSET -4.48913 -0.00000 0.00000
							CHANNELS 3 Zrotation Yrotation Xrotation
							JOINT RightHand
							{
								OFFSET -3.70510 -0.00000 0.00000
								CHANNELS 3 Zrotation Yrotation Xrotation
								JOINT RightFingerBase
								{
									OFFSET 0 0 0
									CHANNELS 3 Zrotation Yrotation Xrotation
									JOINT RightHandIndex1
									{
										OFFSET -0.44914 -0.00000 0.00000
										CHANNELS 3 Zrotation Yrotation Xrotation
										End Site
										{
											OFFSET -0.36211 -0.00000 0.00000
										}
									}
								}
								JOINT RThumb
								{
									OFFSET 0 0 0
									CHANNELS 3 Zrotation Yrotation Xrotation
									End Site
									{
										OFFSET -0.36763 -0.00000 0.36763
									}
								}
							}
						}
					}
				}
			}
		}
	}
}
MOTION
Frames: 16
Frame Time: .0083333
-0.7033 18.713 5.5228 0 0 0 0 0 0 -21 0 0 0 0 0 0 0 0 0 0 0 0 0 0 21 0 0 0 0 0 0 0 0 0 0 0 0 0 0 0 0 0 0 0 0 0 0 -16 0 0 21 0 0 11 0 0 0 -8 0 0 0 0 0 0 0 0 0 0 0 0 0 0 0 0 0 0 0 0 8 0 0 0 0 0 0 0 0 0 0 0 0 0 0 0 0 0
-0.7033 18.7130 5.5228 -2.5874 -2.2162 3.2373 0.0000 0.0000 0.0000 -11.6270 -8.7356 -3.2311 1.2851 7.1835 20.2601 1.6715 7.7720 -28.2894 8.1434 -16.2237 -53.0776 0.0000 0.0000 0.0000 0.0000 0.0000 0.0000 0.0000 0.0000 0.0000 -0.0000 -0.0000 0.0000 -0.0000 -0.0000 0.0000 1.0087 1.2533 -0.4601 0.2946 1.6899 -2.8076 -0.2929 0.8245 -2.6012 -4.7812 -4.0032 -9.5310 5.1053 -6.0075 24.6125 1.9082 -2.7013 9.6321 -0.0000 -0.0000 0.0000 -91.3998 11.6314 28.7480 19.9192 -30.5448 -5.4902 -0.0000 -0.0000 10.1970 7.5769 -27.4021 -3.5032 -7.1250 0.0000 -0.0000 -13.4229 3.0138 13.0678 -0.0000 -0.0000 0.0000 90.7577 -17.6100 25.0670 -24.0716 35.2399 -7.7478 0.0000 0.0000 25.7599 -7.7009 -27.3008 3.5490 7.1250 -0.0000 -0.0000 24.2129 -55.8021 -6.6988
-0.7027 18.7129 5.5221 -2.5502 -2.2190 3.2235 0.0000 0.0000 0.0000 -11.6779 -8.7433 -3.1896 1.2805 7.1711 20.2233 1.6674 7.8007 -28.2797 8.1371 -16.2192 -53.0551 0.0000 0.0000 0.0000 0.0000 0.0000 0.0000 0.0000 0.0000 0.0000 -0.0000 -0.0000 0.0000 -0.0000 -0.0000 0.0000 0.9846 1.2524 -0.4493 0.2786 1.6882 -2.8055 -0.2961 0.8240 -2.6053 -4.7760 -4.0133 -9.5055 5.1118 -6.0233 24.5720 1.9080 -2.7084 9.6138 0.0000 -0.0000 0.0000 -91.3908 11.6261 28.7205 19.9204 -30.5464 -5.4909 -0.0000 -0.0000 10.2484 7.5498 -27.4472 -3.4959 -7.1250 0.0000 -0.0000 -13.4401 2.9728 13.0959 0.0000 -0.0000 0.0000 90.7814 -17.5976 24.9987 -24.0536 35.2209 -7.7374 0.0000 0.0000 25.7507 -7.7073 -27.2740 3.5488 7.1250 -0.0000 -0.0000 24.1884 -55.7791 -6.6777
-0.7025 18.7129 5.5207 -2.5132 -2.2313 3.2042 0.0000 0.0000 0.0000 -11.7318 -8.7794 -3.1346 1.2767 7.1608 20.1927 1.6686 7.8400 -28.3135 8.1239 -16.2097 -53.0079 0.0000 0.0000 0.0000 0.0000 0.0000 0.0000 0.0000 0.0000 0.0000 -0.0000 -0.0000 0.0000 -0.0000 -0.0000 0.0000 0.9459 1.2527 -0.4502 0.2720 1.6878 -2.7814 -0.2808 0.8248 -2.5809 -4.7708 -4.0122 -9.4990 5.1146 -6.0218 24.5329 1.9082 -2.7073 9.5985 -0.0000 0.0000 0.0000 -91.3930 11.5774 28.7305 19.9070 -30.5302 -5.4840 -0.0000 -0.0000 10.2158 7.5778 -27.4112 -3.5047 -7.1250 0.0000 -0.0000 -13.4226 3.0049 13.0697 -0.0000 0.0000 0.0000 90.7770 -17.5559 24.9704 -24.0425 35.2092 -7.7311 0.0000 0.0000 25.7618 -7.7573 -27.3808 3.5849 7.1250 -0.0000 -0.0000 24.2118 -55.8858 -6.7488
-0.7025 18.7129 5.5195 -2.4856 -2.2390 3.1948 0.0000 0.0000 0.0000 -11.7673 -8.7942 -3.1093 1.2745 7.1549 20.1752 1.6714 7.8500 -28.3388 8.1223 -16.2085 -53.0021 0.0000 0.0000 0.0000 0.0000 0.0000 0.0000 0.0000 0.0000 0.0000 -0.0000 -0.0000 0.0000 -0.0000 -0.0000 0.0000 0.9060 1.2446 -0.4757 0.2787 1.6762 -2.7628 -0.2506 0.8201 -2.5487 -4.7698 -4.0026 -9.5261 5.0928 -6.0026 24.5503 1.9023 -2.7000 9.6080 0.0000 -0.0000 0.0000 -91.4057 11.5364 28.7356 19.8940 -30.5145 -5.4774 -0.0000 -0.0000 10.1781 7.5818 -27.3464 -3.4990 -7.1250 0.0000 -0.0000 -13.4185 3.0676 13.0497 0.0000 -0.0000 0.0000 90.7342 -17.5442 25.0025 -24.0515 35.2187 -7.7362 0.0000 0.0000 25.7564 -7.7739 -27.4693 3.6033 7.1250 -0.0000 -0.0000 24.2559 -55.9694 -6.8124
-0.7025 18.7128 5.5185 -2.4898 -2.2389 3.1834 0.0000 0.0000 0.0000 -11.7601 -8.7692 -3.1077 1.2737 7.1529 20.1692 1.6686 7.8374 -28.3119 8.1315 -16.2151 -53.0348 0.0000 0.0000 0.0000 0.0000 0.0000 0.0000 0.0000 0.0000 0.0000 -0.0000 -0.0000 0.0000 -0.0000 -0.0000 0.0000 0.9043 1.2355 -0.4651 0.2891 1.6644 -2.7658 -0.2391 0.8144 -2.5582 -4.8062 -4.0044 -9.5217 5.1149 -6.0049 24.5668 1.9160 -2.7021 9.6151 0.0000 0.0000 0.0000 -91.4136 11.5348 28.7157 19.8933 -30.5136 -5.4771 -0.0000 -0.0000 10.1980 7.5433 -27.2782 -3.4730 -7.1250 0.0000 -0.0000 -13.4393 3.1380 13.0533 0.0000 0.0000 0.0000 90.7012 -17.5588 25.0252 -24.0505 35.2176 -7.7357 0.0000 0.0000 25.7450 -7.8130 -27.3954 3.6127 7.1250 -0.0000 -0.0000 24.1670 -55.9102 -6.7498
-0.7030 18.7125 5.5179 -2.5322 -2.2534 3.1609 0.0000 0.0000 0.0000 -11.7093 -8.6982 -3.1083 1.2740 7.1536 20.1713 1.6632 7.8223 -28.2652 8.1481 -16.2271 -53.0943 0.0000 0.0000 0.0000 0.0000 0.0000 0.0000 0.0000 0.0000 0.0000 -0.0000 -0.0000 0.0000 -0.0000 -0.0000 0.0000 0.9491 1.2408 -0.4279 0.2978 1.6727 -2.7719 -0.2563 0.8174 -2.5844 -4.8401 -4.0123 -9.4825 5.1736 -6.0249 24.5452 1.9405 -2.7092 9.6041 -0.0000 0.0000 0.0000 -91.4026 11.5515 28.7091 19.9000 -30.5216 -5.4805 -0.0000 -0.0000 10.2479 7.5407 -27.2240 -3.4655 -7.1250 0.0000 -0.0000 -13.4393 3.1911 13.0399 -0.0000 0.0000 0.0000 90.7008 -17.5796 25.0284 -24.0552 35.2226 -7.7384 0.0000 0.0000 25.7384 -7.8732 -27.3272 3.6324 7.1250 -0.0000 -0.0000 24.0616 -55.8602 -6.6880
-0.7030 18.7125 5.5170 -2.5570 -2.2556 3.1623 0.0000 0.0000 0.0000 -11.6762 -8.6699 -3.1276 1.2754 7.1574 20.1824 1.6670 7.7748 -28.2603 8.1412 -16.2221 -53.0698 0.0000 0.0000 0.0000 0.0000 0.0000 0.0000 0.0000 0.0000 0.0000 -0.0000 -0.0000 0.0000 -0.0000 -0.0000 0.0000 0.9900 1.2416 -0.4268 0.2952 1.6741 -2.7735 -0.2819 0.8172 -2.5855 -4.8213 -4.0116 -9.5068 5.1903 -6.0314 24.5517 1.9419 -2.7082 9.6113 0.0000 -0.0000 0.0000 -91.3722 11.5605 28.7539 19.9211 -30.5472 -5.4912 -0.0000 -0.0000 10.1943 7.5421 -27.1463 -3.4570 -7.1250 0.0000 -0.0000 -13.4364 3.2667 13.0177 0.0000 -0.0000 0.0000 90.7010 -17.5984 25.0531 -24.0822 35.2510 -7.7539 0.0000 0.0000 25.7230 -7.8827 -27.3078 3.6345 7.1250 -0.0000 -0.0000 24.0391 -55.8445 -6.6718
-0.7026 18.7133 5.5155 -2.5434 -2.2370 3.1893 0.0000 0.0000 0.0000 -11.6866 -8.7200 -3.1578 1.2775 7.1630 20.1992 1.6710 7.7613 -28.2788 8.1296 -16.2138 -53.0282 0.0000 0.0000 0.0000 0.0000 0.0000 0.0000 0.0000 0.0000 0.0000 -0.0000 -0.0000 0.0000 -0.0000 -0.0000 0.0000 0.9902 1.2280 -0.4602 0.2900 1.6555 -2.7712 -0.2862 0.8079 -2.5644 -4.7974 -4.0007 -9.5740 5.1806 -6.0172 24.5804 1.9351 -2.6989 9.6324 0.0000 0.0000 0.0000 -91.3622 11.5434 28.7628 19.9331 -30.5617 -5.4973 -0.0000 -0.0000 10.0984 7.5430 -27.1264 -3.4551 -7.1250 0.0000 -0.0000 -13.4353 3.2860 13.0118 0.0000 0.0000 0.0000 90.6729 -17.5829 25.1100 -24.1015 35.2714 -7.7651 0.0000 0.0000 25.7006 -7.8520 -27.3101 3.6204 7.1250 -0.0000 -0.0000 24.0708 -55.8404 -6.6789
-0.7024 18.7139 5.5145 -2.5448 -2.2334 3.1856 0.0000 0.0000 0.0000 -11.6920 -8.7595 -3.1450 1.2789 7.1669 20.2108 1.6667 7.8163 -28.2852 8.1507 -16.2290 -53.1037 0.0000 0.0000 0.0000 0.0000 0.0000 0.0000 0.0000 0.0000 0.0000 -0.0000 -0.0000 0.0000 -0.0000 -0.0000 0.0000 0.9923 1.2178 -0.4674 0.3000 1.6418 -2.7618 -0.2766 0.8013 -2.5510 -4.8028 -3.9877 -9.6199 5.1777 -5.9966 24.6051 1.9367 -2.6891 9.6488 -0.0000 -0.0000 0.0000 -91.3910 11.5100 28.6864 19.9165 -30.5417 -5.4889 -0.0000 -0.0000 10.1001 7.5544 -27.1798 -3.4667 -7.1250 0.0000 -0.0000 -13.4301 3.2327 13.0199 -0.0000 -0.0000 0.0000 90.6405 -17.5424 25.1524 -24.0978 35.2675 -7.7629 0.0000 0.0000 25.6770 -7.8474 -27.3944 3.6286 7.1250 -0.0000 -0.0000 24.1325 -55.9161 -6.7428
-0.7021 18.7130 5.5139 -2.5757 -2.2432 3.1686 0.0000 0.0000 0.0000 -11.6669 -8.7742 -3.1223 1.2805 7.1712 20.2237 1.6651 7.8514 -28.2971 8.1624 -16.2374 -53.1457 0.0000 0.0000 0.0000 0.0000 0.0000 0.0000 0.0000 0.0000 0.0000 -0.0000 -0.0000 0.0000 -0.0000 -0.0000 0.0000 1.0373 1.2230 -0.4648 0.3088 1.6495 -2.7603 -0.2929 0.8042 -2.5499 -4.8176 -3.9913 -9.6073 5.1877 -6.0026 24.6188 1.9423 -2.6923 9.6525 -0.0000 -0.0000 0.0000 -91.3839 11.5175 28.7023 19.9258 -30.5528 -5.4936 -0.0000 -0.0000 10.1231 7.5407 -27.1719 -3.4594 -7.1250 0.0000 -0.0000 -13.4380 3.2419 13.0256 -0.0000 -0.0000 0.0000 90.6472 -17.5229 25.1293 -24.0783 35.2470 -7.7517 0.0000 0.0000 25.6385 -7.8892 -27.4768 3.6582 7.1250 -0.0000 -0.0000 24.1476 -55.9990 -6.7971
-0.7021 18.7121 5.5132 -2.6079 -2.2530 3.1634 0.0000 0.0000 0.0000 -11.6316 -8.7945 -3.1220 1.2831 7.1781 20.2442 1.6709 7.8383 -28.3275 8.1445 -16.2245 -53.0815 0.0000 0.0000 0.0000 0.0000 0.0000 0.0000 0.0000 0.0000 0.0000 -0.0000 -0.0000 0.0000 -0.0000 -0.0000 0.0000 1.0913 1.2311 -0.4798 0.3132 1.6607 -2.7622 -0.3184 0.8087 -2.5419 -4.8257 -4.0021 -9.5594 5.2010 -6.0205 24.5976 1.9469 -2.7010 9.6375 0.0000 -0.0000 0.0000 -91.3498 11.5403 28.7791 19.9455 -30.5766 -5.5036 -0.0000 -0.0000 10.0821 7.5140 -27.1580 -3.4454 -7.1250 0.0000 -0.0000 -13.4533 3.2582 13.0373 0.0000 -0.0000 0.0000 90.6620 -17.5243 25.1011 -24.0624 35.2302 -7.7425 0.0000 0.0000 25.5882 -7.9632 -27.4506 3.6896 7.1250 -0.0000 -0.0000 24.0568 -55.9900 -6.7639
-0.7027 18.7125 5.5121 -2.6295 -2.2562 3.1592 0.0000 0.0000 0.0000 -11.6023 -8.8010 -3.1277 1.2851 7.1834 20.2599 1.6757 7.8167 -28.3461 8.1385 -16.2202 -53.0601 0.0000 0.0000 0.0000 0.0000 0.0000 0.0000 0.0000 0.0000 0.0000 -0.0000 -0.0000 0.0000 -0.0000 -0.0000 0.0000 1.1110 1.2271 -0.4741 0.3283 1.6561 -2.7682 -0.3142 0.8060 -2.5513 -4.8426 -3.9937 -9.5090 5.2239 -6.0093 24.5291 1.9597 -2.6965 9.6042 -0.0000 -0.0000 0.0000 -91.3571 11.5480 28.7776 19.9435 -30.5742 -5.5026 -0.0000 -0.0000 10.0383 7.4991 -27.1824 -3.4413 -7.1250 0.0000 -0.0000 -13.4627 3.2361 13.0525 -0.0000 -0.0000 0.0000 90.6627 -17.5344 25.0829 -24.0556 35.2229 -7.7386 0.0000 0.0000 25.6130 -7.9392 -27.3527 3.6663 7.1250 -0.0000 -0.0000 24.0139 -55.8964 -6.6951
-0.7032 18.7127 5.5108 -2.6299 -2.2546 3.1465 0.0000 0.0000 0.0000 -11.5998 -8.7741 -3.1289 1.2861 7.1862 20.2682 1.6754 7.8053 -28.3373 8.1601 -16.2357 -53.1373 0.0000 0.0000 0.0000 0.0000 0.0000 0.0000 0.0000 0.0000 0.0000 -0.0000 -0.0000 0.0000 -0.0000 -0.0000 0.0000 1.1060 1.2207 -0.4505 0.3443 1.6482 -2.7799 -0.2955 0.8022 -2.5773 -4.8798 -3.9721 -9.4598 5.2620 -5.9792 24.4598 1.9833 -2.6834 9.5708 0.0000 -0.0000 0.0000 -91.3902 11.5735 28.7647 19.9499 -30.5819 -5.5058 -0.0000 -0.0000 10.0570 7.5030 -27.1787 -3.4427 -7.1250 0.0000 -0.0000 -13.4603 3.2392 13.0492 0.0000 -0.0000 0.0000 90.6588 -17.5642 25.0407 -24.0555 35.2229 -7.7385 0.0000 0.0000 25.6735 -7.7742 -27.3541 3.5895 7.1250 -0.0000 -0.0000 24.1771 -55.8650 -6.7258
-0.7036 18.7121 5.5099 -2.6282 -2.2558 3.1284 0.0000 0.0000 0.0000 -11.5972 -8.7118 -3.1350 1.2862 7.1865 20.2691 1.6739 7.7680 -28.3028 8.1666 -16.2404 -53.1604 0.0000 0.0000 0.0000 0.0000 0.0000 0.0000 0.0000 0.0000 0.0000 -0.0000 -0.0000 0.0000 -0.0000 -0.0000 0.0000 1.1068 1.2129 -0.4320 0.3557 1.6385 -2.7798 -0.2846 0.7974 -2.5881 -4.9095 -3.9600 -9.4603 5.2900 -5.9617 24.4262 1.9998 -2.6753 9.5598 -0.0000 -0.0000 0.0000 -91.4324 11.5725 28.6999 19.9370 -30.5664 -5.4993 -0.0000 -0.0000 10.1182 7.4870 -27.1654 -3.4337 -7.1250 0.0000 -0.0000 -13.4694 3.2539 13.0548 -0.0000 -0.0000 0.0000 90.6463 -17.5764 25.0358 -24.0593 35.2269 -7.7407 0.0000 0.0000 25.6847 -7.6308 -27.4742 3.5369 7.1250 -0.0000 -0.0000 24.3999 -55.9453 -6.8418
-0.7047 18.7122 5.5087 -2.6407 -2.2611 3.1205 0.0000 0.0000 0.0000 -11.5701 -8.6398 -3.1539 1.2847 7.1823 20.2566 1.6725 7.7075 -28.2545 8.1406 -16.2217 -53.0674 0.0000 0.0000 0.0000 0.0000 0.0000 0.0000 0.0000 0.0000 0.0000 -0.0000 -0.0000 0.0000 -0.0000 -0.0000 0.0000 1.1210 1.2070 -0.4114 0.3593 1.6311 -2.7797 -0.2891 0.7934 -2.5994 -4.9095 -3.9544 -9.4602 5.3130 -5.9570 24.3769 2.0081 -2.6711 9.5427 0.0000 -0.0000 0.0000 -91.4598 11.5530 28.5953 19.9064 -30.5294 -5.4837 -0.0000 -0.0000 10.1878 7.4749 -27.1530 -3.4267 -7.1250 0.0000 -0.0000 -13.4762 3.2672 13.0585 0.0000 -0.0000 0.0000 90.6565 -17.5655 25.0572 -24.0536 35.2209 -7.7374 0.0000 0.0000 25.6750 -7.6002 -27.5562 3.5323 7.1250 -0.0000 -0.0000 24.4864 -56.0135 -6.9096
